<svg width="170" height="52" viewBox="0 0 170 52" fill="none" xmlns="http://www.w3.org/2000/svg">
<path d="M3.125 40.69V8.20966H13.9345V19.7577H15.2793L23.2215 8.20966H35.2743L24.1603 22.99L36.3908 40.69H23.7543L15.3554 27.8647H13.9345V40.69H3.125Z" fill="#21AC50"/>
<path d="M38.2431 40.69V12.9279H48.7988V40.69H38.2431ZM39.6133 9.40877C38.6322 8.53985 38.1416 7.29729 38.1416 5.68109C38.1416 4.04752 38.6152 2.80495 39.5626 1.95341C40.5268 1.08449 41.8293 0.650024 43.4702 0.650024C45.128 0.650024 46.439 1.08449 47.4032 1.95341C48.3675 2.80495 48.8496 4.04752 48.8496 5.68109C48.8496 7.29729 48.359 8.53985 47.3779 9.40877C46.3967 10.2777 45.1026 10.7122 43.4956 10.7122C41.9055 10.7122 40.6114 10.2777 39.6133 9.40877Z" fill="#21AC50"/>
<path d="M53.6199 40.69V13.6578C57.7644 12.3544 62.8308 11.7027 68.8192 11.7027C73.6741 11.7027 77.1335 12.5717 79.1973 14.3095C81.278 16.0473 82.3183 18.6976 82.3183 22.2602V40.69H71.7626V24.2674C71.7626 22.2167 70.4685 21.1914 67.8803 21.1914L64.0995 21.2956V40.69H53.6199Z" fill="#21AC50"/>
<path d="M97.3907 31.9052C98.3549 32.861 99.6744 33.3476 101.349 33.365C102.652 33.365 103.7 32.8263 104.496 31.7488C105.307 30.6713 105.713 28.9682 105.713 26.6395C105.713 24.2761 105.181 22.6164 104.115 21.6606C103.049 20.6874 101.51 20.2008 99.4968 20.2008L97.3907 20.3051V31.9052ZM86.9111 50.7V13.6578C90.4804 12.3544 94.7856 11.7027 99.8266 11.7027C105.984 11.7027 110.306 13.0061 112.793 15.6129C115.28 18.2023 116.523 21.7909 116.523 26.3788C116.523 30.932 115.339 34.651 112.971 37.5358C110.619 40.4207 107.532 41.8631 103.709 41.8631C102.44 41.8631 101.315 41.698 100.334 41.3678C99.353 41.055 98.6763 40.7595 98.3042 40.4815L97.7206 40.0123H97.3907V50.7H86.9111Z" fill="#21AC50"/>
<path d="M129.515 23.4853H137.761V22.99C137.761 22.0342 137.423 21.2174 136.746 20.5397C136.087 19.8445 135.139 19.497 133.904 19.497C132.737 19.497 131.773 19.8532 131.012 20.5658C130.267 21.2783 129.768 22.2515 129.515 23.4853ZM119.517 27.7604C119.517 22.8076 120.777 18.8974 123.298 16.03C125.835 13.1451 129.193 11.7027 133.372 11.7027C137.482 11.7027 140.747 12.954 143.166 15.4565C145.585 17.9416 146.795 21.2088 146.795 25.2579C146.795 26.1442 146.752 26.9958 146.668 27.8126C146.583 28.6294 146.507 29.2202 146.439 29.5852L146.338 30.1326H129.921C129.954 31.5576 130.453 32.5308 131.418 33.0522C132.399 33.5562 134.15 33.8081 136.67 33.8081C137.753 33.8081 138.869 33.6952 140.02 33.4693C141.17 33.2433 142.05 33.0174 142.659 32.7915L143.648 32.4266L144.511 40.2469C144.376 40.3685 144.122 40.5162 143.75 40.69C143.377 40.8638 142.388 41.0984 140.781 41.3938C139.191 41.7067 137.296 41.8631 135.097 41.8631C130.597 41.8631 126.876 40.6726 123.932 38.2918C120.989 35.8936 119.517 32.3831 119.517 27.7604Z" fill="#21AC50"/>
<path d="M148.672 21.5824V15.4825L151.819 13.7099L154.153 8.20966H162.146V12.9279H167.5V21.5824H162.146V28.8031C162.146 30.402 162.501 31.4881 163.212 32.0616C163.939 32.6351 165.216 32.9218 167.043 32.9218L163.694 41.8631C159.549 41.8631 156.496 41.0637 154.534 39.4648C152.571 37.8486 151.59 35.1463 151.59 31.3578V21.5824H148.672Z" fill="#21AC50"/>
</svg>
